<mxfile host="app.diagrams.net" modified="2023-11-09T07:33:33.650Z" agent="Mozilla/5.0 (X11; Linux x86_64) AppleWebKit/537.36 (KHTML, like Gecko) Chrome/119.0.0.0 Safari/537.36" version="22.1.0" etag="zZm258xVsEhvjOpRGnlG" type="github">
  <diagram name="Страница — 1" id="X_pbbqrgJV0iN55l-i-a">
    <mxGraphModel>
      <root>
        <mxCell id="0" />
        <mxCell id="1" parent="0" />
      </root>
    </mxGraphModel>
  </diagram>
</mxfile>
